<svg width="25" height="25" viewBox="0 0 25 25" fill="none" xmlns="http://www.w3.org/2000/svg">
<path d="M10.1606 2.96484C14.1647 2.96484 17.4106 6.21078 17.4106 10.2148C17.4106 11.9467 16.8033 13.5367 15.7901 14.7836L20.6909 19.6845C20.9838 19.9774 20.9838 20.4522 20.6909 20.7451C20.4247 21.0114 20.008 21.0356 19.7144 20.8177L19.6303 20.7451L14.7294 15.8443C13.4825 16.8575 11.8925 17.4648 10.1606 17.4648C6.15658 17.4648 2.91064 14.2189 2.91064 10.2148C2.91064 6.21078 6.15658 2.96484 10.1606 2.96484ZM10.1606 4.46484C6.985 4.46484 4.41064 7.0392 4.41064 10.2148C4.41064 13.3904 6.985 15.9648 10.1606 15.9648C13.3362 15.9648 15.9106 13.3904 15.9106 10.2148C15.9106 7.0392 13.3362 4.46484 10.1606 4.46484Z" fill="#9BA5B7"/>
</svg>
